<?xml version="1.0" encoding="UTF-8"?>
<svg xmlns="http://www.w3.org/2000/svg" xmlns:xlink="http://www.w3.org/1999/xlink" width="540" height="280">
  <defs>
    <marker id="filledTraiangle" viewBox="0 0 10 10" refX="10" refY="5" markerWidth="10" markerHeight="10" orient="auto">
      <path d="M10 5 0 0 0 10Z" fill-rule="evenodd" stroke="none" fill="black"/>
    </marker>
    <marker id="triangle" viewBox="0 0 10 10" refX="10" refY="5" markerWidth="10" markerHeight="10" orient="auto">
      <path d="M10 5 0 0 0 10 Z M8 5 1 8.4 1 1.6Z" fill-rule="evenodd" stroke="none" fill="black"/>
    </marker>
    <marker id="arrowhead" viewBox="0 0 10 10" refX="10" refY="5" markerWidth="10" markerHeight="10" orient="auto">
      <path d="M10 5 0 10 0 8.7 6.8 5.5 0 5.5 0 4.5 6.8 4.5 0 1.3 0 0Z" stroke="none" fill="black"/>
    </marker>
    <marker id="diamond" viewBox="0 0 16 10" refX="16" refY="5" markerWidth="16" markerHeight="10" orient="auto">
      <path d="M-1 5 7.5 0 16 5 7.5 10Z M1.3 5 7.5 8.7 14 5 7.5 1.3Z" fill-rule="evenodd" stroke="none" fill="black"/>
    </marker>
    <marker id="filledDiamond" viewBox="0 0 16 10" refX="16" refY="5" markerWidth="16" markerHeight="10" orient="auto">
      <path d="M-1 5 7.5 0 16 5 7.5 10Z" stroke="none" fill="black"/>
    </marker>
  </defs>
  <g id="UserClass" class="class" transform="translate(40,20)">
    <rect width="260" fill="none" stroke="black" stroke-width="1" height="120"/>
    <g class="classname">
      <rect width="260" fill="none" stroke="black" stroke-width="1" height="22"/>
      <text font-size="12" text-anchor="middle" fill="black" transform="translate(130,4)" font-family="Noto Sans Japanese">
        <tspan x="0" y="0" dy="1em">User</tspan>
      </text>
    </g>
    <g class="attributes" transform="translate(0,22)">
      <rect width="260" fill="none" stroke="black" stroke-width="1" height="90"/>
      <text font-size="12" text-anchor="start" fill="black" transform="translate(4,4)" font-family="Noto Sans Japanese">
        <tspan x="0" y="0" dy="1em">microposts: Array[Micropost]</tspan>
        <tspan x="0" y="1.4em" dy="1em">relationships: Array[Relationship]</tspan>
        <tspan x="0" y="2.8em" dy="1em">followed_users: Array[User]</tspan>
        <tspan x="0" y="4.199999999999999em" dy="1em">reversed_relationships: Array[Relationship]</tspan>
        <tspan x="0" y="5.6em" dy="1em">followers: Array[User]</tspan>
      </text>
    </g>
    <g class="methods" transform="translate(0,112)">
      <rect width="260" fill="none" stroke="black" stroke-width="1" height="8"/>
      <text font-size="12" font-family="Noto Sans Japanese"/>
    </g>
  </g>
  <g id="MicropostClass" class="class" transform="translate(360,20)">
    <rect width="140" fill="none" stroke="black" stroke-width="1" height="69"/>
    <g class="classname">
      <rect width="140" fill="none" stroke="black" stroke-width="1" height="22"/>
      <text font-size="12" text-anchor="middle" fill="black" transform="translate(70,4)" font-family="Noto Sans Japanese">
        <tspan x="0" y="0" dy="1em">Micropost</tspan>
      </text>
    </g>
    <g class="attributes" transform="translate(0,22)">
      <rect width="140" fill="none" stroke="black" stroke-width="1" height="39"/>
      <text font-size="12" text-anchor="start" fill="black" transform="translate(4,4)" font-family="Noto Sans Japanese">
        <tspan x="0" y="0" dy="1em">user: User</tspan>
        <tspan x="0" y="1.4em" dy="1em">content: string</tspan>
      </text>
    </g>
    <g class="methods" transform="translate(0,61)">
      <rect width="140" fill="none" stroke="black" stroke-width="1" height="8"/>
      <text font-size="12" font-family="Noto Sans Japanese"/>
    </g>
  </g>
  <g id="RelationshipClass" class="class" transform="translate(40,180)">
    <rect width="160" fill="none" stroke="black" stroke-width="1" height="69"/>
    <g class="classname">
      <rect width="160" fill="none" stroke="black" stroke-width="1" height="22"/>
      <text font-size="12" text-anchor="middle" fill="black" transform="translate(80,4)" font-family="Noto Sans Japanese">
        <tspan x="0" y="0" dy="1em">Relationship</tspan>
      </text>
    </g>
    <g class="attributes" transform="translate(0,22)">
      <rect width="160" fill="none" stroke="black" stroke-width="1" height="39"/>
      <text font-size="12" text-anchor="start" fill="black" transform="translate(4,4)" font-family="Noto Sans Japanese">
        <tspan x="0" y="0" dy="1em">follower : User</tspan>
        <tspan x="0" y="1.4em" dy="1em">followed : User</tspan>
      </text>
    </g>
    <g class="methods" transform="translate(0,61)">
      <rect width="160" fill="none" stroke="black" stroke-width="1" height="8"/>
      <text font-size="12" font-family="Noto Sans Japanese"/>
    </g>
  </g>
  <path class="connector" d="M300,54.5L360,54.5" stroke="black" stroke-width="1" fill="none" marker-end="url(#filledDiamond)" stroke-dasharray="44 16" stroke-dashoffset="0"/>
  <path class="connector" d="M100,140L100,180" stroke="black" stroke-width="1" fill="none" marker-end="url(#filledDiamond)" stroke-dasharray="24 16" stroke-dashoffset="0"/>
  <path class="connector" d="M140,140L140,180" stroke="black" stroke-width="1" fill="none" marker-end="url(#filledDiamond)" stroke-dasharray="24 16" stroke-dashoffset="0"/>
  <path class="connector" d="M40,120L20,120L20,160L60,160L60,140" stroke="black" stroke-width="1" fill="none" marker-end="url(#diamond)" stroke-dasharray="104 16" stroke-dashoffset="0"/>
  <path class="connector" d="M300,120L320,120L320,160L280,160L280,140" stroke="black" stroke-width="1" fill="none" marker-end="url(#diamond)" stroke-dasharray="104 16" stroke-dashoffset="0"/>
</svg>
